<?xml version="1.0" encoding="UTF-8"?>
<!DOCTYPE svg PUBLIC "-//W3C//DTD SVG 1.1//EN" "http://www.w3.org/Graphics/SVG/1.1/DTD/svg11.dtd">
<!-- Creator: CorelDRAW 2020 (64-Bit) -->
<svg xmlns="http://www.w3.org/2000/svg" xml:space="preserve" width="149.4mm" height="85.9mm" version="1.1" style="shape-rendering:geometricPrecision; text-rendering:geometricPrecision; image-rendering:optimizeQuality; fill-rule:evenodd; clip-rule:evenodd"
viewBox="0 0 27940 21590"
 xmlns:xlink="http://www.w3.org/1999/xlink"
 xmlns:xodm="http://www.corel.com/coreldraw/odm/2003">
 <defs>
  <style type="text/css">
   <![CDATA[
    .str0 {stroke:black;stroke-width:87.31;stroke-miterlimit:22.9256}
    .fil3 {fill:#FAAB35}
    .fil7 {fill:#F8A731}
    .fil5 {fill:#EA9336}
    .fil1 {fill:#E8B934}
    .fil2 {fill:#E19738}
    .fil0 {fill:#D35738}
    .fil4 {fill:#E1C03E}
    .fil6 {fill:#C3853B}
    .fil12 {fill:#333333}
    .fil13 {fill:#B3B3B3}
    .fil17 {fill:#CCCCCC}
    .fil18 {fill:white}
    .fil14 {fill:black;fill-rule:nonzero}
    .fil16 {fill:#1A1A1A;fill-rule:nonzero}
    .fil20 {fill:#CCCCCC;fill-rule:nonzero}
    .fil11 {fill:url(#id0)}
    .fil9 {fill:url(#id1)}
    .fil8 {fill:url(#id2)}
    .fil10 {fill:url(#id3)}
    .fil19 {fill:url(#id4);fill-rule:nonzero}
    .fil15 {fill:url(#id5);fill-rule:nonzero}
   ]]>
  </style>
  <linearGradient id="id0" gradientUnits="userSpaceOnUse" x1="14978.8" y1="8422.01" x2="17580.35" y2="16774.42">
   <stop offset="0" style="stop-opacity:1; stop-color:#333333"/>
   <stop offset="0.0901961" style="stop-opacity:1; stop-color:#1A1A1A"/>
   <stop offset="0.301961" style="stop-opacity:1; stop-color:#1A1A1A"/>
   <stop offset="0.380392" style="stop-opacity:1; stop-color:#999999"/>
   <stop offset="0.611765" style="stop-opacity:1; stop-color:#1A1A1A"/>
   <stop offset="0.690196" style="stop-opacity:1; stop-color:black"/>
   <stop offset="0.85098" style="stop-opacity:1; stop-color:#1A1A1A"/>
   <stop offset="0.921569" style="stop-opacity:1; stop-color:#1A1A1A"/>
   <stop offset="1" style="stop-opacity:1; stop-color:black"/>
  </linearGradient>
  <linearGradient id="id1" gradientUnits="userSpaceOnUse" xlink:href="#id0" x1="23555.88" y1="6138.95" x2="23537.23" y2="15465.15">
  </linearGradient>
  <linearGradient id="id2" gradientUnits="userSpaceOnUse" x1="16074.76" y1="4566.8" x2="17735.86" y2="16221.49">
   <stop offset="0" style="stop-opacity:1; stop-color:#333333"/>
   <stop offset="0.0901961" style="stop-opacity:1; stop-color:#1A1A1A"/>
   <stop offset="0.301961" style="stop-opacity:1; stop-color:#1A1A1A"/>
   <stop offset="0.380392" style="stop-opacity:1; stop-color:#999999"/>
   <stop offset="0.619608" style="stop-opacity:1; stop-color:#1A1A1A"/>
   <stop offset="0.760784" style="stop-opacity:1; stop-color:black"/>
   <stop offset="0.85098" style="stop-opacity:1; stop-color:#1A1A1A"/>
   <stop offset="0.921569" style="stop-opacity:1; stop-color:#1A1A1A"/>
   <stop offset="1" style="stop-opacity:1; stop-color:black"/>
  </linearGradient>
  <linearGradient id="id3" gradientUnits="userSpaceOnUse" xlink:href="#id2" x1="14935.17" y1="5954.58" x2="14935.17" y2="15557.89">
  </linearGradient>
  <radialGradient id="id4" gradientUnits="userSpaceOnUse" gradientTransform="matrix(1.91466 -1.71791 -1.63413 -1.82133 -5709 72171)" cx="24878.87" cy="10431.75" r="348.16" fx="24878.87" fy="10431.75">
   <stop offset="0" style="stop-opacity:1; stop-color:#CCCCCC"/>
   <stop offset="1" style="stop-opacity:1; stop-color:#1A1A1A"/>
  </radialGradient>
  <radialGradient id="id5" gradientUnits="userSpaceOnUse" gradientTransform="matrix(-1.9387 -1.0707 -0.615195 2.05074 64798 5874)" cx="19137.62" cy="13911.06" r="2145.1" fx="19137.62" fy="13911.06">
   <stop offset="0" style="stop-opacity:1; stop-color:#1A1A1A"/>
   <stop offset="1" style="stop-opacity:1; stop-color:#CCCCCC"/>
  </radialGradient>
 </defs>
 <g id="Capa_x0020_1">
  <metadata id="CorelCorpID_0Corel-Layer"/>
  <g id="_737955712">
   <path class="fil0" d="M14257.1 12427.75c-321.05,2342.33 -1052.09,3348.66 -2103.06,3312.77 584.51,-653.36 882.42,-1229.25 595.57,-1647.08 -2155.66,3226.71 -2836.21,1157.01 -3973.46,1405.12 489.17,-327.83 1160.22,-345.54 1749.43,-14.05 -154.56,-392.47 -644.08,-653.82 -1172.49,-748.99 773.1,-239.76 1292.92,-107 1665.69,241.94 664.96,-375.66 725.18,-904.49 362.91,-1321.39 -1274.22,838.22 -2514.98,1202.42 -3647.76,37.22 3090.47,1173.55 2286.89,-2377.01 4317.76,-1433.05 -812.65,-1261.8 -1435.27,260.65 -2521.8,148.39 -740.45,-76.5 -1045.24,-609.08 -1079.45,-1413.94 708.08,518.93 1214.49,559.95 1265.57,-325.7 75,-1300.21 -2968.12,-393.91 -3405.83,-2577.63 1915.44,2565.82 3481.34,-304.59 5276.23,1098.05 1198.8,-997.97 209.54,-2875.24 -1647.08,-1442.34 965.99,-1192.1 1940.62,-1325.6 2921.94,-632.79 25.32,-328.75 -210.94,-581.52 -660.69,-772.35 432.51,-88.68 816.6,239.29 1172.49,809.57 201.76,-647.55 -676,-1608.83 -1712.21,-1284.16 1753.71,-764.1 2627.24,696.63 2596.95,3229.24l-0.71 3331.17z"/>
   <path class="fil1" d="M9432.31 9652.6c749.25,-88.5 1370.92,218.29 1843.24,1029.78 -202.67,539.48 -645.29,551.06 -1194.22,328.83 516.57,734.5 1153.66,644.38 1462.51,-69.2l25.95 553.83c354.8,-954.79 1250.49,-122.6 419.72,229.33l335.32 75.32 -36.78 309.77 138.47 -225 147.11 181.73 138.46 -307.21c128.61,818.7 -138.48,1204.87 -1342.82,1015.52 -571.81,-89.89 -753.83,293.8 -1071.59,810.42 1094.73,-741.34 1445.15,382.22 1895.18,-445.67 349.36,210.03 49.73,843.45 -744.21,1808.64 618.38,-238.42 1042.89,-768.47 1263.44,-1566.32 344.04,102.62 398.98,477.31 320.19,977.87 580.9,-840.18 786.41,-1563.84 285.57,-2068.26 953.29,-734.18 884.18,-2110.06 -726.92,-2371.13 979.31,127.48 1394.91,-173.47 943.26,-1384.59 274.02,-668.15 100.95,-1016.46 -449.99,-1125 108.99,298.1 98.71,506.73 -69.23,597.12 -247.83,-572.14 -709.84,-939.39 -1488.46,-1003.83 845.25,383.22 1142.24,917.7 649.04,1670.16 129.81,-155.77 250.95,-398.07 389.41,-467.3 115.22,558.54 -97.89,958.77 -467.29,1194.22 -126.94,-196.16 -452.88,109.61 -874.04,-121.16 189.52,147.11 298.02,294.26 302.88,441.35 -808.73,-487.8 -1516.23,-550.6 -2094.2,-69.22z"/>
  </g>
  <g id="_738004624">
   <path class="fil2" d="M5209.27 7371.32c898.69,-298.28 1091.57,-1480.24 2597.98,-1270.74 1700.61,236.51 1222.24,2554.65 324.73,1701.39 -108.87,196.68 -234.71,299.86 -381.21,289.44 76.64,-299.84 45.72,-521.44 -84.72,-670.66 -287.09,316.31 -574.19,319.09 -861.29,127.07 435.88,-311.7 510.15,-657.8 155.31,-1044.82 -511.22,744.48 -1107.77,952.29 -1750.8,868.32z"/>
   <path class="fil3" d="M7934.32 6601.83c1031.45,177.96 837.03,1518.76 -49.41,889.52 603.56,208.33 751.85,-504.81 49.41,-889.52z"/>
  </g>
  <g id="_737982064">
   <path class="fil4" d="M1900.06 9391.24c1061.79,79.07 1634.03,-768.96 2562.13,-642.93 1551.81,210.71 1955.55,608.99 2430.2,1466.4l-476.54 -99.55 272.2 297.4c-350.24,174.73 -936.14,149.94 -1050.74,524.19 -297.22,970.66 -883.78,1141.43 -1647.68,821.97 353.47,-332.23 298.46,-806.91 -164.7,-761.7 -545.56,161.25 -967.59,1321 -1698.42,1348.44 377.04,-763.38 816.05,-1434.14 1420.44,-1980.28 892.23,-806.24 1784.27,1080 2069.04,-171.06 -125.21,-732.46 -691.73,-816.73 -1677.83,-391.15 -799.27,344.94 -1476.5,144.27 -2038.1,-411.73z"/>
   <path class="fil5" d="M3457.25 10999.15c722.8,-509.08 1388.65,-312.6 844.05,619.98 609.45,257.32 1008.99,-115.27 1299.71,-814.19 -300.37,10.15 -593.5,-37.5 -873.95,-186.72 -757.72,-484.64 -1209.22,-409.27 -1269.81,380.93z"/>
   <path class="fil5" d="M2680.4 9624.75c854.01,667.28 2208.48,-861.49 3099.87,-37.35 -1468.54,-1325.3 -1763.27,-427.66 -3099.87,37.35z"/>
  </g>
  <g id="_1216431136">
   <path class="fil6" d="M8109.74 12044.59c50.35,112.22 37.89,210.12 -13.31,299.24 -766.93,290.38 -741.96,1347.82 -1742.22,1256.8 -486.57,-44.28 -1183.66,-641.06 -1775.49,-638.38 396.78,-246.04 1034.27,34.21 1549.4,79.8 417.62,36.96 618.15,-432.96 285.93,-704.86 -189.94,-155.48 -417.26,-288.62 -684.93,-385.69 703.59,-61.98 1509.2,774.74 2380.62,93.09z"/>
   <path class="fil7" d="M6726.59 12430.28c42.42,303.66 -157.55,607.35 -452.18,911.02 419.44,-161.07 790.8,-426.35 1103.86,-817.93 -191.25,-83.01 -407.26,-116.48 -651.68,-93.09z"/>
  </g>
  <g id="_1216438816">
   <polygon class="fil8" points="17453.13,6581.74 16263.09,6581.74 16244.21,14928.55 17264.23,14928.55 "/>
   <path class="fil9" d="M17150.95 15627.77l4760.14 0c2253.1,0 4665.71,-2569.92 4665.71,-4814.64 0,-2244.6 -2412.61,-4814.65 -4665.71,-4814.65l-4760.14 0c-380.97,3084.29 -374.59,6296.08 0,9628.97l0 0.32z"/>
   <path class="fil10" d="M16349.86 5962.46l373.99 609.98c-445.35,2429.05 -347.32,5305.29 -40.63,8353.03l-340.03 582.35 -23.33 50.07 -1737.82 -23.32c-732.72,0 -658.5,-9535.89 -18.89,-9535.89l1786.72 -36.43 -0.01 0.21z"/>
   <path class="fil11" d="M16349.67 5962.75l374 609.49c-445.35,2429.05 -347.03,5304.96 -40.32,8353.03l-340.11 582.77 -23.37 49.77 -7.61 0.01c-578.63,-3752.09 -597.07,-6981.73 32.73,-9594.89l4.68 0 0 -0.18z"/>
   <path class="fil12" d="M25848.13 9787.27c-1244.85,2781.94 -3687.55,-168.48 -2625.23,-2008.06l134.56 -186.52 2490.77 2194.59 -0.1 -0.01z" filter="url(#ai)"/>
   <path class="fil13" d="M25452.44 9886.25c-938.19,2210.08 -2750.69,-319.06 -1950.17,-1780.51l-26.71 0 1976.72 1780.51 0.16 0z"/>
   <path class="fil14" d="M18279.28 11064.18c0,901.89 590.14,1633.29 1317.84,1633.29 727.71,0 1317.85,-731.4 1317.85,-1633.29 0,-901.88 -590.14,-1633.29 -1317.85,-1633.29 -727.7,0 -1317.84,731.41 -1317.84,1633.29z" filter="url(#am)"/>
   <path class="fil15" d="M18448.5 11064.18c0,786.02 514.32,1423.44 1148.53,1423.44 634.2,0 1148.52,-637.42 1148.52,-1423.44 0,-786.01 -514.32,-1423.44 -1148.52,-1423.44 -634.21,0 -1148.53,637.43 -1148.53,1423.44z" filter="url(#aq)"/>
   <path class="fil16" d="M18874.29 11186.43c0,483.66 316.48,875.88 706.73,875.88 390.25,0 706.73,-392.22 706.73,-875.88 0,-483.66 -316.48,-875.88 -706.73,-875.88 -390.25,0 -706.73,392.22 -706.73,875.88z" filter="url(#al)"/>
   <path class="fil17" d="M23242.68 12608.54c0,0 689.47,-1049.16 -604.46,-1107.46 0,0 -1161.69,-1258.99 -1917.26,652.81 0,0 -727.25,-396.35 -793.35,-338.07 460.85,-1248.53 -357.55,-1532.52 -774.46,-1107.46 -1066.92,1863.91 -14.68,2576.97 1407.25,3089.21 1138.39,1487.52 3383.68,865.72 2672.91,-81.61 430.53,-612.63 217.58,-858.67 9.44,-1107.46l-0.07 0.04z"/>
   <path class="fil18" d="M25149.84 9757.77c-674.04,1587.82 -1976.16,-229.23 -1401.02,-1279.17l-19.19 0 1420.23 1279.17 -0.02 0z" filter="url(#aj)"/>
   <path class="fil14 str0" d="M24561.56 9107.52l656.24 590.7c-67.71,177.46 -180.04,292.12 -306.2,292.12 -100.89,0 -193.21,-72.37 -261.22,-192.58 -68.01,-120.21 -110.44,-287.37 -110.44,-472.42 0,-76.8 8.19,-149.32 21.62,-217.82l0 0z" filter="url(#ar)"/>
   <path class="fil19 str0" d="M24561.56 9107.52l656.24 590.7c-67.71,177.46 -180.04,292.12 -306.2,292.12 -100.89,0 -193.21,-72.37 -261.22,-192.58 -68.01,-120.21 -110.44,-287.37 -110.44,-472.42 0,-76.8 8.19,-149.32 21.62,-217.82l0 0z"/>
   <path class="fil20" d="M24825.78 9375.94l257.12 231.52c-29.92,69.58 -69.3,108.19 -106.94,108.19 -35.26,0 -71.36,-30.27 -101.09,-92.32 -29.2,-60.92 -48.38,-149.39 -49.09,-247.39z" filter="url(#as)"/>
  </g>
 </g>
</svg>
